<svg xmlns="http://www.w3.org/2000/svg" width="164" height="34" fill="none"><path fill="#fff" d="M16.65.311C3.531.311 0 7.908 0 16.966s3.491 16.732 16.65 16.732c13.157 0 16.649-7.555 16.649-16.692 0-9.136-3.454-16.695-16.65-16.695"/><path fill="#FF5100" d="M22.256 17.003v-4.858h-4.86v-4.86h-4.86v14.579h4.86v-4.861zm.001 4.861h-4.86v4.861h4.86z"/><path fill="#fff" d="M53.007 10.592h-8.093V7.485h20.117v3.107h-8.093v15.646h-3.93zM65.03 20.11v-7.951h3.649v7.18c0 2.593 1.311 4.19 5.327 4.19 3.617 0 6.697-2.05 6.697-5.613v-5.757h3.647v14.079h-3.647c.057-1.025.112-2.906.112-4.36h-.058c-.855 3.164-3.39 4.646-7.95 4.646-5.47 0-7.78-3.021-7.78-6.411zm22.05-1.084c0-3.961 3.218-7.153 9.06-7.153 3.961 0 6.128 1.11 6.867 3.049h.027V7.485h3.648v18.753h-3.648c.058-1.025.112-2.453.143-3.618h-.058c-.684 2.31-2.878 3.904-7.095 3.904-5.698 0-8.948-2.964-8.948-7.494zm15.957.17v-.425c0-2.225-2.05-4.047-6.383-4.047-3.961 0-5.954 1.853-5.954 4.302 0 2.848 2.194 4.643 5.927 4.643 4.275 0 6.41-2.565 6.41-4.472m24.67.855h-14.534c.256 2.139 1.625 3.876 5.927 3.876 3.733 0 5.045-1.11 5.273-2.279h3.334c-.17 2.453-2.592 4.875-8.607 4.875-7.436 0-9.602-3.706-9.602-7.212 0-4.503 3.447-7.436 9.374-7.436s8.832 2.678 8.832 7.038v1.138zm-3.334-2.28c0-1.88-1.509-3.303-5.358-3.303-3.532 0-5.242 1.195-5.726 3.392h11.084zm6.148-10.288h3.648v18.753h-3.648zm6.611 12.625v-7.951h3.648v7.18c0 2.593 1.312 4.19 5.328 4.19 3.617 0 6.696-2.05 6.696-5.613v-5.757h3.648v14.079h-3.648c.058-1.025.112-2.906.112-4.36h-.057c-.855 3.164-3.39 4.646-7.95 4.646-5.471 0-7.78-3.021-7.78-6.411zm21.684 3.818a2.596 2.596 0 0 1 2.592-2.592 2.596 2.596 0 0 1 2.593 2.592 2.6 2.6 0 0 1-2.593 2.593 2.6 2.6 0 0 1-2.592-2.593m4.844 0a2.25 2.25 0 0 0-2.252-2.251 2.253 2.253 0 1 0 2.252 2.252m-3.352-1.37h1.189c.702 0 1.022.31 1.022.74 0 .249-.089.48-.365.603v.014c.283.105.365.32.365.552v.773h-.497v-.773c0-.208-.103-.327-.389-.327h-.831v1.1h-.494v-2.684zm1.189 1.183c.378 0 .525-.123.525-.378 0-.201-.116-.365-.566-.365h-.657v.743z"/><path fill="#fff" d="M146.002 8.943h-3.648v3.649h3.648zm5.224 0h-3.648v3.649h3.648z"/></svg>