<svg width="407" height="82" viewBox="0 0 407 82" fill="none" xmlns="http://www.w3.org/2000/svg">
<path d="M41.268 0C8.7551 0 0 18.6115 0 40.8035C0 62.9954 8.65379 81.7989 41.268 81.7989C73.8822 81.7989 82.536 63.2876 82.536 40.9036C82.536 18.5197 73.9751 0 41.268 0ZM55.1647 40.8953H43.117V52.805H55.1647V64.7147H43.117V52.805H31.0692V17.0842H43.117V28.9939H55.1647V40.9036V40.8953Z" fill="#FF5100"/>
<path d="M131.386 25.1877H111.326V17.5762H161.189V25.1877H141.129V63.5208H131.386V25.1877Z" fill="#FF5100"/>
<path d="M161.188 48.5069V29.0273H170.23V46.6207C170.23 52.972 173.481 56.8862 183.435 56.8862C192.401 56.8862 200.033 51.8619 200.033 43.132V29.0273H209.075V63.5213H200.033C200.177 61.0091 200.312 56.4022 200.312 52.8384H200.168C198.049 60.5918 191.768 64.2223 180.463 64.2223C166.904 64.2223 161.18 56.8195 161.18 48.5152L161.188 48.5069Z" fill="#FF5100"/>
<path d="M215.839 45.8523C215.839 36.146 223.817 28.3258 238.296 28.3258C248.115 28.3258 253.485 31.0466 255.317 35.7954H255.384V17.5762H264.426V63.5208H255.384C255.528 61.0086 255.663 57.5117 255.739 54.6574H255.595C253.898 60.3159 248.461 64.2218 238.009 64.2218C223.884 64.2218 215.83 56.9608 215.83 45.8607L215.839 45.8523ZM255.393 46.2696V45.2264C255.393 39.7765 250.31 35.3114 239.571 35.3114C229.752 35.3114 224.813 39.8516 224.813 45.8523C224.813 52.8296 230.25 57.2279 239.503 57.2279C250.099 57.2279 255.393 50.9434 255.393 46.2696Z" fill="#FF5100"/>
<path d="M316.543 48.3653H280.518C281.151 53.6066 284.545 57.863 295.208 57.863C304.461 57.863 307.712 55.1422 308.278 52.2796H316.543C316.121 58.2887 310.118 64.2227 295.208 64.2227C276.778 64.2227 271.408 55.1422 271.408 46.5542C271.408 35.5208 279.952 28.335 294.643 28.335C309.333 28.335 316.535 34.8949 316.535 45.5777V48.3653H316.543ZM308.278 42.7818C308.278 38.1749 304.537 34.6863 294.997 34.6863C286.242 34.6863 282.004 37.6157 280.805 42.9988H308.278V42.7902V42.7818Z" fill="#FF5100"/>
<path d="M323.518 17.5762H332.56V63.5208H323.518V17.5762Z" fill="#FF5100"/>
<path d="M339.903 48.5069V29.0273H348.945V46.6207C348.945 52.972 352.196 56.8862 362.15 56.8862C371.116 56.8862 378.748 51.8619 378.748 43.132V29.0273H387.79V63.5213H378.748C378.891 61.0091 379.027 56.4022 379.027 52.8384H378.883C376.764 60.5918 370.482 64.2223 359.178 64.2223C345.619 64.2223 339.895 56.8195 339.895 48.5152L339.903 48.5069Z" fill="#FF5100"/>
<path d="M393.65 57.862C393.65 54.3651 396.529 51.5107 400.075 51.5107C403.621 51.5107 406.5 54.3651 406.5 57.862C406.5 61.359 403.613 64.2133 400.075 64.2133C396.538 64.2133 393.65 61.359 393.65 57.862ZM405.656 57.862C405.656 54.8074 403.165 52.3453 400.075 52.3453C396.985 52.3453 394.486 54.8074 394.486 57.862C394.486 60.9167 396.985 63.3871 400.075 63.3871C403.165 63.3871 405.656 60.9167 405.656 57.862ZM397.348 54.5069H400.295C402.034 54.5069 402.828 55.2664 402.828 56.318C402.828 56.9273 402.608 57.4948 401.924 57.7953V57.8286C402.625 58.0874 402.828 58.6132 402.828 59.1807V61.0752H401.595V59.1807C401.595 58.6716 401.342 58.3795 400.633 58.3795H398.572V61.0752H397.348V54.4986V54.5069ZM400.295 57.403C401.232 57.403 401.595 57.1025 401.595 56.4766C401.595 55.9842 401.308 55.5836 400.193 55.5836H398.564V57.403H400.286H400.295Z" fill="#FF5100"/>
<path d="M361.89 21.1494H352.848V30.088H361.89V21.1494Z" fill="#FF5100"/>
<path d="M374.841 21.1494H365.799V30.088H374.841V21.1494Z" fill="#FF5100"/>
</svg>
